<svg width="400" height="300" viewBox="0 0 400 300" xmlns="http://www.w3.org/2000/svg">
  <!-- 团队合影场景 -->
  <defs>
    <linearGradient id="groundGradient" x1="0%" y1="0%" x2="0%" y2="100%">
      <stop offset="0%" style="stop-color:#90EE90"/>
      <stop offset="100%" style="stop-color:#228B22"/>
    </linearGradient>
  </defs>
  
  <!-- 背景 -->
  <rect width="400" height="300" fill="#87CEEB"/>
  
  <!-- 草地 -->
  <rect x="0" y="200" width="400" height="100" fill="url(#groundGradient)"/>
  
  <!-- 山峰背景 -->
  <path d="M0,200 L100,100 L200,150 L300,50 L400,150 L400,200 Z" fill="#A0522D"/>
  
  <!-- 人物剪影组 -->
  <g transform="translate(50,180)">
    <!-- 第一排 -->
    <g transform="translate(0,0)">
      <circle cx="50" cy="0" r="10"/>
      <circle cx="100" cy="0" r="10"/>
      <circle cx="150" cy="0" r="10"/>
      <circle cx="200" cy="0" r="10"/>
      <circle cx="250" cy="0" r="10"/>
    </g>
    <!-- 第二排 -->
    <g transform="translate(25,30)">
      <circle cx="50" cy="0" r="10"/>
      <circle cx="100" cy="0" r="10"/>
      <circle cx="150" cy="0" r="10"/>
      <circle cx="200" cy="0" r="10"/>
    </g>
  </g>
  
  <!-- 旗帜 -->
  <line x1="350" y1="100" x2="350" y2="180" stroke="#8B4513" stroke-width="4"/>
  <path d="M350,100 L380,110 L350,120" fill="#FF4500"/>
</svg>